<svg width="512" height="512" viewBox="0 0 48 48" fill="none" xmlns="http://www.w3.org/2000/svg">
<path d="M32.0581 14.9968L32.1383 15.1312L32.2808 15.1958C32.8794 15.4672 33.5358 16.127 34.1729 17.1792C34.8025 18.2189 35.3808 19.5882 35.8495 21.1935L35.9545 21.5534H36.3295H42.5V40.5534H36H35.8081L35.6655 40.6818L31.3637 44.5534H10.5C8.84315 44.5534 7.5 43.2103 7.5 41.5534V40.0534C7.5 39.225 8.17157 38.5534 9 38.5534V38.0534V37.5534H8.5C6.84315 37.5534 5.5 36.2103 5.5 34.5534V33.0534C5.5 32.0553 6.08491 31.1928 6.93286 30.7918L7.7139 30.4225L7.00457 29.9293C6.09422 29.2963 5.5 28.2442 5.5 27.0534V26.5534C5.5 24.9107 6.82041 23.5763 8.45766 23.5537L8.58779 22.5729C7.95938 22.3938 7.5 21.815 7.5 21.1301V19.6301C7.5 17.9733 8.84315 16.6301 10.5 16.6301H23.3203H24.2014L23.7495 15.8737L19.257 8.35395C18.1799 6.55116 18.7682 4.21659 20.571 3.13954L20.8113 2.99599C22.4707 2.0046 24.6196 2.54614 25.611 4.20555L32.0581 14.9968Z" fill="#fff" stroke="#fff"/>
</svg>
