<svg width="512" height="512" viewBox="0 0 48 48" fill="none" xmlns="http://www.w3.org/2000/svg">
<path d="M5.53457 26.9062H5.5V9.5H36C39.5898 9.5 42.5 12.4101 42.5 16V26.2188C42.5 29.8086 39.5898 32.7188 36 32.7188H31.8188H31.529L31.3849 32.9703C29.1841 36.814 24.5418 39.5 19.1282 39.5C11.5264 39.5 5.5 34.2328 5.5 27.8906C5.5 27.736 5.50355 27.5822 5.51057 27.4292L5.53457 26.9062ZM33.7436 12.375H33.2436V12.875V28.4442V28.9442H33.7436H34.6026C37.364 28.9442 39.6026 26.7056 39.6026 23.9442V17.375C39.6026 14.6136 37.364 12.375 34.6026 12.375H33.7436Z" fill="#fff" stroke="#fff"/>
</svg>
