<svg width="512" height="512" viewBox="0 0 48 48" fill="none" xmlns="http://www.w3.org/2000/svg">
<path d="M42.5 23.5C42.5 33.9934 33.9934 42.5 23.5 42.5C13.0066 42.5 4.5 33.9934 4.5 23.5C4.5 13.0066 13.0066 4.5 23.5 4.5C33.9934 4.5 42.5 13.0066 42.5 23.5ZM23 29.5C26.0376 29.5 28.5 27.0376 28.5 24C28.5 20.9624 26.0376 18.5 23 18.5C19.9624 18.5 17.5 20.9624 17.5 24C17.5 27.0376 19.9624 29.5 23 29.5ZM24.5 24C24.5 24.8284 23.8284 25.5 23 25.5C22.1716 25.5 21.5 24.8284 21.5 24C21.5 23.1716 22.1716 22.5 23 22.5C23.8284 22.5 24.5 23.1716 24.5 24Z" fill="#fff" stroke="#fff"/>
</svg>
