<svg width="512" height="512" viewBox="0 0 48 48" fill="none" xmlns="http://www.w3.org/2000/svg">
<path d="M22.2289 23.5H22V18.4725C22.1642 18.4907 22.331 18.5 22.5 18.5C22.669 18.5 22.8359 18.4907 23 18.4725V20.5394C22.8349 20.5525 22.6706 20.5688 22.5073 20.5883L22.0581 20.6417L22.0665 21.094L22.0833 22.0054C22.0853 22.6035 22.1232 23.0865 22.2289 23.5ZM22.5 17.5C22.3303 17.5 22.1633 17.4879 22 17.4646V10.5354C22.1633 10.5121 22.3303 10.5 22.5 10.5C22.6698 10.5 22.8367 10.5121 23 10.5354V17.4646C22.8367 17.4879 22.6698 17.5 22.5 17.5ZM21 10.8368V17.1632C19.8176 16.6015 19 15.3962 19 14C19 12.6038 19.8176 11.3985 21 10.8368ZM22.5 9.5C22.331 9.5 22.1642 9.50932 22 9.52746V3.5H23V9.52746C22.8359 9.50932 22.669 9.5 22.5 9.5ZM24 17.1632V10.8368C25.1825 11.3985 26 12.6038 26 14C26 15.3962 25.1825 16.6015 24 17.1632ZM12.5 33C12.5 32.7374 12.5088 32.477 12.5261 32.2189C13.0404 29.5659 14.8481 27.4429 17.171 26.8455C16.4301 28.0368 16 29.4663 16 31C16 35.1066 19.0998 38.5 23 38.5C26.9003 38.5 30 35.1066 30 31C30 27.2513 27.417 24.0969 24 23.5756V21.5C30.3513 21.5 35.5 26.6487 35.5 33C35.5 39.3513 30.3513 44.5 24 44.5C17.6487 44.5 12.5 39.3513 12.5 33Z" fill="#fff" stroke="#fff"/>
</svg>
