<svg width="512" height="512" viewBox="0 0 48 48" fill="none" xmlns="http://www.w3.org/2000/svg">
<path d="M6.52282 9.44777C6.25791 6.79868 8.33819 4.5 11.0005 4.5H37.9506C40.6129 4.5 42.6932 6.79868 42.4283 9.44777L42.0681 13.0498C42.0425 13.3054 41.8274 13.5 41.5706 13.5H33.4325L33.2184 12.1078C33.0085 10.7432 31.7321 9.80702 30.3674 10.0169L17.2008 12.0419C16.3264 12.1764 15.6288 12.7486 15.295 13.5H7.38054C7.12366 13.5 6.90858 13.3054 6.88302 13.0498L6.52282 9.44777ZM9.62814 15.5H15.2032L17.0813 27.7108C17.2912 29.0754 18.5676 30.0116 19.9322 29.8017L33.0989 27.7767C34.4635 27.5668 35.3997 26.2903 35.1898 24.9257L33.7401 15.5H39.3276C40.1981 15.5 40.8858 16.2386 40.8238 17.1069L39.1095 41.1069C39.0534 41.8918 38.4003 42.5 37.6133 42.5H11.3944C10.6087 42.5 9.95609 41.8937 9.89842 41.1101L8.13219 17.1101C8.0682 16.2406 8.75635 15.5 9.62814 15.5Z" fill="#fff" stroke="#fff"/>
</svg>
