<svg width="512" height="512" viewBox="0 0 48 48" fill="none" xmlns="http://www.w3.org/2000/svg">
<path d="M11.6217 33.1336L11.6655 33.2571C11.8515 33.7812 12 34.3917 12 35C12 35.3717 11.9451 35.8418 11.8907 36.3083L11.8879 36.3325C11.7896 37.1744 11.6932 38.0324 11.7896 38.679C11.8371 38.9981 11.9239 39.2026 12.0268 39.3215C12.1117 39.4196 12.2409 39.5 12.5 39.5C12.7039 39.5 12.8054 39.4496 12.8617 39.405C12.9227 39.3567 12.983 39.2729 13.0312 39.1226C13.1361 38.795 13.1307 38.3399 13.1179 37.8163L13.117 37.779C13.109 37.4572 13.0998 37.0855 13.1561 36.7935C13.1859 36.6391 13.2442 36.445 13.3805 36.283C13.5366 36.0974 13.756 36 14 36C14.2825 36 14.5139 36.1264 14.6864 36.282C14.8549 36.4339 14.9888 36.6314 15.0974 36.835C15.3148 37.2427 15.4829 37.7756 15.6117 38.323C15.8706 39.4231 16 40.7115 16 41.5C16 41.8509 16.0296 42.1194 16.0788 42.3162C16.1288 42.5161 16.1905 42.6084 16.2285 42.6464L16.2296 42.6475C16.2478 42.6661 16.3471 42.7674 16.7764 42.5528C16.8603 42.5108 16.8893 42.48 16.901 42.4646C16.9119 42.4504 16.9308 42.4201 16.9455 42.3407C16.9817 42.1453 16.9664 41.8441 16.929 41.2569C16.864 40.2342 16.7609 38.6076 17.002 35.9547L17.0184 35.7745L17.1464 35.6464C17.7702 35.0227 18.5753 34.8472 19.2463 35.0149C19.9044 35.1795 20.4999 35.7102 20.5 36.4998M11.6217 33.1336L20.5 36.5C20.5 36.4999 20.5 36.4999 20.5 36.4998M11.6217 33.1336L11.523 33.0475C10.2826 31.9652 9.5 30.3743 9.5 28.6C9.5 27.9925 9.99249 27.5 10.6 27.5H37.4C38.0075 27.5 38.5 27.9925 38.5 28.6C38.5 31.8585 35.8585 34.5 32.6 34.5H23H22.5V35C22.5 35.667 22.3341 36.0813 22.1375 36.3325C21.9421 36.5822 21.6842 36.7124 21.4178 36.7568C21.143 36.8026 20.8755 36.7537 20.6924 36.6622C20.6018 36.6169 20.5478 36.5693 20.5208 36.5352C20.5079 36.5189 20.5029 36.508 20.5011 36.5034C20.5003 36.5012 20.5 36.5001 20.5 36.4998M11.6217 33.1336L20.5 36.4998C20.5 36.4998 20.5 36.4998 20.5 36.4998M12.916 18.2226L12.7676 18H12.5C12.0399 18 11.6498 17.9423 11.3497 17.8556C11.0885 17.7801 10.9228 17.6908 10.8335 17.6211C10.8821 17.589 10.9609 17.5462 11.0852 17.5H22.696C20.593 17.6345 18.4958 17.8307 16.9448 18.0031L16.8711 18.0112L16.803 18.0404C16.2508 18.2771 15.3766 18.559 14.563 18.64C14.1563 18.6804 13.7925 18.6677 13.5018 18.5925C13.2166 18.5187 13.0297 18.3931 12.916 18.2226ZM29.9174 17.5H37.519C37.4923 17.517 37.453 17.5379 37.3956 17.5617C37.2962 17.6029 37.179 17.6389 37.0268 17.6849C37.0095 17.6901 36.9915 17.6955 36.973 17.701C36.542 17.8299 35.7878 18.0554 35.5257 18.8419C35.4727 19.0008 35.3066 19.1712 34.9299 19.2881C34.5604 19.4028 34.0707 19.4353 33.5552 19.3781C33.0419 19.321 32.5407 19.179 32.1516 18.9778C31.7501 18.7701 31.5399 18.5386 31.4743 18.3419C31.4022 18.1255 31.2486 17.9788 31.1064 17.8826C30.9627 17.7854 30.7933 17.7141 30.6206 17.6588C30.4179 17.5939 30.1804 17.5418 29.9174 17.5ZM17 5.5H28.5V8.5C28.5 9.60457 29.3954 10.5 30.5 10.5C31.6046 10.5 32.5 9.60457 32.5 8.5V11.5C32.5 12.6046 33.3954 13.5 34.5 13.5C35.6046 13.5 36.5 12.6046 36.5 11.5V7.90089C37.7417 9.23942 38.5 11.031 38.5 13V14.5H9.5V13C9.5 8.85786 12.8579 5.5 17 5.5ZM10.5 23.5C10.5 22.3954 11.3954 21.5 12.5 21.5H35.5C36.6046 21.5 37.5 22.3954 37.5 23.5C37.5 24.6046 36.6046 25.5 35.5 25.5H12.5C11.3954 25.5 10.5 24.6046 10.5 23.5Z" fill="#fff" stroke="#fff"/>
</svg>
