<svg width="512" height="512" viewBox="0 0 48 48" fill="none" xmlns="http://www.w3.org/2000/svg">
<path d="M23.98 5.51118L24 5.51198L24.02 5.51118C28.0842 5.34861 36.0016 6.87879 39.5 14.125V23.3217C39.3348 23.5255 39.1804 23.78 39.0415 24.0452C38.8575 24.3964 38.6824 24.8022 38.5308 25.2137C38.2347 26.0175 38 26.9195 38 27.5116V27.5731L38.0149 27.6328C38.2467 28.5598 38.2471 29.492 38.1308 30.2481C38.0727 30.6256 37.9869 30.9504 37.8917 31.2018C37.7921 31.4653 37.6977 31.6068 37.6464 31.658C37.4006 31.9038 36.6772 32.6267 35.7167 33.2871C34.7437 33.956 33.5971 34.5116 32.5 34.5116C31.8449 34.5116 31.4318 34.982 31.1885 35.45C30.9405 35.927 30.7891 36.5392 30.6922 37.1318C30.4968 38.327 30.4975 39.6135 30.5 40.0147L30.5003 40.0626L30.5097 40.1096C30.5216 40.1693 30.5198 40.2498 30.4286 40.3649C30.3247 40.496 30.0967 40.6776 29.6317 40.8579C28.7006 41.2189 26.9885 41.5106 24.0154 41.5116C20.774 41.3115 19.0519 41.0221 18.1697 40.7038C17.7273 40.5441 17.5689 40.4019 17.5151 40.3272C17.4819 40.281 17.4656 40.2331 17.4903 40.1096L17.4997 40.0626L17.5 40.0147C17.5025 39.6135 17.5032 38.327 17.3078 37.1318C17.2109 36.5392 17.0595 35.927 16.8115 35.45C16.5682 34.982 16.1551 34.5116 15.5 34.5116C14.4029 34.5116 13.2563 33.956 12.2833 33.2871C11.3228 32.6267 10.5994 31.9038 10.3536 31.658C10.3023 31.6068 10.2079 31.4653 10.1083 31.2018C10.0131 30.9504 9.92726 30.6256 9.86919 30.2481C9.75287 29.492 9.75333 28.5598 9.98507 27.6328L10 27.5731V27.5116C10 26.9195 9.76529 26.0175 9.46917 25.2137C9.31757 24.8022 9.14249 24.3964 8.95854 24.0452C8.8196 23.78 8.66517 23.5255 8.5 23.3217V14.125C11.9984 6.87879 19.9158 5.34861 23.98 5.51118ZM23.9818 26.984C23.8922 26.9789 23.7827 26.9957 23.672 27.0692C23.6056 27.1133 23.5583 27.1653 23.5246 27.2176C23.4277 27.3232 23.3238 27.466 23.2274 27.6064C23.0856 27.8129 22.9173 28.0787 22.7381 28.3825C22.38 28.9896 21.969 29.7646 21.6314 30.545C21.2985 31.315 21.0182 32.1327 20.954 32.8119C20.9221 33.15 20.9381 33.5059 21.0721 33.8151C21.218 34.1517 21.4909 34.3997 21.8787 34.4966C22.3504 34.6146 22.7718 34.6025 23.138 34.4687C23.5042 34.335 23.7716 34.0954 23.9623 33.8317C23.9864 33.7984 24.0095 33.7645 24.0314 33.7302C24.0464 33.7491 24.0618 33.7678 24.0775 33.7863C24.2775 34.0207 24.5448 34.2208 24.8922 34.3263C25.2381 34.4313 25.6289 34.4322 26.0613 34.3241C26.4447 34.2282 26.7187 33.9862 26.8664 33.6523C27.0021 33.3457 27.0181 32.9938 26.9859 32.6615C26.9213 31.9946 26.6396 31.1947 26.3064 30.4444C25.9684 29.6834 25.5568 28.9286 25.1983 28.3382C25.019 28.0428 24.8503 27.7843 24.7081 27.5838C24.6108 27.4466 24.504 27.3044 24.4036 27.2004C24.3699 27.1527 24.3243 27.1058 24.2623 27.0658C24.1628 27.0018 24.0648 26.983 23.9818 26.984ZM16 31.0116C17.3967 31.0116 18.8846 30.3142 20.0128 29.3184C21.138 28.3254 22 26.95 22 25.5116C22 24.1747 21.5942 22.8182 20.8351 21.7838C20.0702 20.7415 18.931 20.0116 17.5 20.0116C16.0934 20.0116 14.7228 20.7177 13.7145 21.726C12.7061 22.7344 12 24.105 12 25.5116C12 26.8109 12.2635 28.1592 12.8894 29.2011C13.5285 30.2648 14.5535 31.0116 16 31.0116ZM27 25.5116C27 26.95 27.862 28.3254 28.9872 29.3184C30.1154 30.3142 31.6033 31.0116 33 31.0116C34.4465 31.0116 35.4715 30.2648 36.1106 29.2011C36.7365 28.1592 37 26.8109 37 25.5116C37 24.105 36.2939 22.7344 35.2855 21.726C34.2772 20.7177 32.9066 20.0116 31.5 20.0116C30.069 20.0116 28.9298 20.7415 28.1649 21.7838C27.4058 22.8182 27 24.1747 27 25.5116Z" fill="#fff" stroke="#fff"/>
</svg>
