<svg width="512" height="512" viewBox="0 0 48 48" fill="none" xmlns="http://www.w3.org/2000/svg">
<path d="M7.21465 21.9669L7.247 21.9401L7.27444 21.9084L19 8.34306V21.7102V22.2102H19.5H29.5H30V21.7102V8.34305L41.7256 21.9085L41.7531 21.9402L41.7854 21.9669C44.0646 23.8502 45.5 26.6302 45.5 29.7264C45.5 35.3674 40.7219 39.9764 34.7826 39.9764C30.3777 39.9764 26.6044 37.4369 24.9549 33.8219L24.5 32.825L24.0451 33.8219C22.3956 37.4369 18.6223 39.9764 14.2174 39.9764C8.27807 39.9764 3.5 35.3674 3.5 29.7264C3.5 26.6302 4.93542 23.8501 7.21465 21.9669ZM19.5305 23.2102H19.0882L19.0342 23.6492C19.0116 23.8335 19 24.0207 19 24.2102C19 27.0198 21.5133 29.2102 24.5 29.2102C27.4867 29.2102 30 27.0198 30 24.2102C30 24.0207 29.9884 23.8335 29.9658 23.6492L29.9118 23.2102H29.4695H19.5305Z" fill="#fff" stroke="#fff"/>
</svg>
