<?xml version="1.0" encoding="utf-8"?>
<!-- Generator: Adobe Illustrator 22.1.0, SVG Export Plug-In . SVG Version: 6.00 Build 0)  -->
<svg version="1.1" id="Layer_1" xmlns="http://www.w3.org/2000/svg" xmlns:xlink="http://www.w3.org/1999/xlink" x="0px" y="0px"
	 viewBox="0 0 48 48" style="enable-background:new 0 0 48 48;" xml:space="preserve" width="512" height="512">
<style type="text/css">
	.st0{fill:#fff;}
</style>
<path class="st0" d="M9,7L9,7L9,7L9,7z M39.8,7L39.8,7L39.8,7L39.8,7z"/>
<path class="st0" d="M42.6,38.6c-0.7,0-1.4,0.3-1.9,0.7l-6.2-7.1c2.5-2.5,4.1-6,4.1-9.8c0-2.8-0.8-5.4-2.3-7.6l4.7-5.4
	c0.5,0.4,1.2,0.7,1.9,0.7c1.7,0,3-1.3,3-3c0-1.7-1.3-3-3-3c-0.4,0-0.8,0.1-1.2,0.2c0-0.1,0-0.2,0-0.2c0-1.7-1.4-3.1-3.1-3.1
	c-1.7,0-3.1,1.4-3.1,3.1c0,1,0.4,1.8,1.1,2.4l-3.9,4.5c-2.4-1.7-5.4-2.8-8.7-2.8c-3,0-5.7,0.9-8,2.3l-3.5-4.1
	C13,6,13.4,5.1,13.4,4.1C13.4,2.4,12,1,10.3,1C8.6,1,7.2,2.4,7.2,4.1c0,0.1,0,0.2,0,0.2C6.8,4.2,6.4,4.1,6,4.1c-1.7,0-3,1.3-3,3
	c0,1.7,1.3,3,3,3c0.7,0,1.4-0.3,1.9-0.7l4.1,4.7c-1.7,2.3-2.7,5.2-2.7,8.2c0,4.1,1.8,7.7,4.6,10.3l-5.7,6.6
	c-0.5-0.4-1.2-0.7-1.9-0.7c-1.7,0-3,1.3-3,3c0,1.7,1.3,3,3,3c0.4,0,0.8-0.1,1.2-0.3c0,0.1,0,0.3,0,0.4c0,1.7,1.3,3,3,3
	c1.7,0,3-1.3,3-3c0-0.9-0.4-1.7-1-2.3l4.5-5.2c1.4,1.2,3.9,2,6.6,2c3.5,0,6.4-1.2,7.5-3l5.4,6.2c-0.6,0.6-1,1.4-1,2.3
	c0,1.7,1.3,3,3,3c1.7,0,3-1.3,3-3c0-0.1,0-0.3,0-0.4c0.4,0.2,0.8,0.3,1.2,0.3c1.7,0,3-1.3,3-3C45.6,39.9,44.2,38.6,42.6,38.6z
	 M39.8,7L39.8,7L39.8,7L39.8,7z M9,7L9,7L9,7L9,7z M18.7,27.1c-1.7,0-3.1-1.4-3.1-3.1c0-1.7,1.4-3.1,3.1-3.1c1.7,0,3.1,1.4,3.1,3.1
	C21.8,25.7,20.4,27.1,18.7,27.1z M29.1,27.1c-1.7,0-3.1-1.4-3.1-3.1c0-1.7,1.4-3.1,3.1-3.1c1.7,0,3.1,1.4,3.1,3.1
	C32.2,25.7,30.8,27.1,29.1,27.1z"/>
</svg>
