<svg width="512" height="512" viewBox="0 0 48 48" fill="none" xmlns="http://www.w3.org/2000/svg">
<path d="M32 33.5H31.5V34V40C31.5 43.0376 29.0376 45.5 26 45.5H21C17.9624 45.5 15.5 43.0376 15.5 40V34V33.5H15H14C10.9624 33.5 8.5 31.0376 8.5 28V17C8.5 8.43959 15.4396 1.5 24 1.5C32.5604 1.5 39.5 8.43959 39.5 17V26C39.5 30.1421 36.1421 33.5 32 33.5ZM31.5 26.5C34.2614 26.5 36.5 24.2614 36.5 21.5C36.5 18.7386 34.2614 16.5 31.5 16.5C28.7386 16.5 26.5 18.7386 26.5 21.5C26.5 24.2614 28.7386 26.5 31.5 26.5ZM16.5 26.5C19.2614 26.5 21.5 24.2614 21.5 21.5C21.5 18.7386 19.2614 16.5 16.5 16.5C13.7386 16.5 11.5 18.7386 11.5 21.5C11.5 24.2614 13.7386 26.5 16.5 26.5ZM28.5 32.5C28.5 29.7386 26.2614 27.5 23.5 27.5C20.7386 27.5 18.5 29.7386 18.5 32.5V35.5C18.5 38.2614 20.7386 40.5 23.5 40.5C26.2614 40.5 28.5 38.2614 28.5 35.5V32.5Z" fill="#fff" stroke="#fff"/>
</svg>
