<svg width="512" height="512" viewBox="0 0 48 48" fill="none" xmlns="http://www.w3.org/2000/svg">
<path d="M15.5 40V39.5H15H13C9.96244 39.5 7.5 37.0376 7.5 34V20.4545C7.5 12.1954 14.1954 5.5 22.4545 5.5C23.0319 5.5 23.5 5.96807 23.5 6.54546V47C23.5 47.2761 23.2761 47.5 23 47.5H20C17.5147 47.5 15.5 45.4853 15.5 43V40ZM34 39.5H33.5V40V43C33.5 45.4853 31.4853 47.5 29 47.5H26C25.7239 47.5 25.5 47.2761 25.5 47V6.54545C25.5 5.96807 25.9681 5.5 26.5455 5.5C34.8046 5.5 41.5 12.1954 41.5 20.4545V34C41.5 37.0376 39.0376 39.5 36 39.5H34ZM16.5 34.5C19.2614 34.5 21.5 32.2614 21.5 29.5C21.5 26.7386 19.2614 24.5 16.5 24.5C13.7386 24.5 11.5 26.7386 11.5 29.5C11.5 32.2614 13.7386 34.5 16.5 34.5ZM27.5 29.5C27.5 32.2614 29.7386 34.5 32.5 34.5C35.2614 34.5 37.5 32.2614 37.5 29.5C37.5 26.7386 35.2614 24.5 32.5 24.5C29.7386 24.5 27.5 26.7386 27.5 29.5Z" fill="#fff" stroke="#fff"/>
</svg>
