<svg width="512" height="512" viewBox="0 0 48 48" fill="none" xmlns="http://www.w3.org/2000/svg">
<path d="M35.8143 14.0358L35.3655 14.2153L35.5298 14.6699C35.7305 15.2254 35.929 15.7602 36.1221 16.2806C36.9252 18.4442 37.6356 20.3583 38.0261 22.4656C38.5058 25.0547 38.4994 27.9407 37.5149 31.8787C36.5361 35.7941 34.8742 38.2613 32.6431 39.7794C30.4022 41.3043 27.5189 41.919 24.0027 41.9872C17.7509 41.7968 12.1484 37.7458 10.9887 32.3817C9.79621 26.8655 10.8578 21.9243 12.488 14.6088L12.5805 14.1937L12.1857 14.0358L7.67675 12.2322L10.7438 5.66003L20.8921 10.2729C18.7551 17.186 17.3971 22.0675 18.0022 28.5465C18.1676 30.3174 19.0073 31.6345 20.1893 32.4908C21.3601 33.3391 22.8439 33.7207 24.3016 33.6874C27.1867 33.6215 30.2192 31.8905 30.4983 28.5415C30.9621 22.9758 29.554 18.3404 27.5802 11.8427C27.4264 11.3362 27.2691 10.8184 27.109 10.2879L38.1958 5.66843L40.3766 12.2109L35.8143 14.0358Z" fill="#fff" stroke="#fff"/>
</svg>
