<svg width="512" height="512" viewBox="0 0 48 48" fill="none" xmlns="http://www.w3.org/2000/svg">
<mask id="path-1-inside-1" fill="white">
<path fill-rule="evenodd" clip-rule="evenodd" d="M40.3635 36.1364C38.9664 36.5036 37.5048 36.6985 36 36.6985C26.0589 36.6985 18 28.1919 18 17.6985C18 12.8169 19.7441 8.36525 22.6104 5C13.7343 6.59841 7 14.362 7 23.6985C7 34.1919 15.5066 42.6985 26 42.6985C31.7368 42.6985 36.8797 40.1561 40.3635 36.1364Z"/>
</mask>
<path fill-rule="evenodd" clip-rule="evenodd" d="M40.3635 36.1364C38.9664 36.5036 37.5048 36.6985 36 36.6985C26.0589 36.6985 18 28.1919 18 17.6985C18 12.8169 19.7441 8.36525 22.6104 5C13.7343 6.59841 7 14.362 7 23.6985C7 34.1919 15.5066 42.6985 26 42.6985C31.7368 42.6985 36.8797 40.1561 40.3635 36.1364Z" fill="#fff"/>
<path d="M40.3635 36.1364L41.1192 36.7914L43.2377 34.3471L40.1093 35.1693L40.3635 36.1364ZM22.6104 5L23.3717 5.64842L25.1842 3.52043L22.4332 4.01583L22.6104 5ZM40.1093 35.1693C38.7942 35.5149 37.418 35.6985 36 35.6985V37.6985C37.5915 37.6985 39.1386 37.4923 40.6177 37.1036L40.1093 35.1693ZM36 35.6985C26.6614 35.6985 19 27.6913 19 17.6985H17C17 28.6926 25.4563 37.6985 36 37.6985V35.6985ZM19 17.6985C19 13.0575 20.6575 8.83502 23.3717 5.64842L21.8492 4.35158C18.8307 7.89547 17 12.5763 17 17.6985H19ZM8 23.6985C8 14.8545 14.3793 7.49834 22.7877 5.98417L22.4332 4.01583C13.0892 5.69849 6 13.8696 6 23.6985H8ZM26 41.6985C16.0589 41.6985 8 33.6397 8 23.6985H6C6 34.7442 14.9543 43.6985 26 43.6985V41.6985ZM39.6078 35.4815C36.3059 39.2913 31.4346 41.6985 26 41.6985V43.6985C32.0389 43.6985 37.4535 41.0208 41.1192 36.7914L39.6078 35.4815Z" fill="#fff" mask="url(#path-1-inside-1)"/>
</svg>
