<svg width="512" height="512" viewBox="0 0 48 48" fill="none" xmlns="http://www.w3.org/2000/svg">
<path d="M23 10.4287C23.6075 10.4287 24.1301 10.0679 24.3661 9.54881C26.5586 9.51108 28.7735 10.2278 30.593 11.7382L30.8556 11.4218L30.593 11.7382L31.1612 12.2099C35.1981 15.5612 35.7539 21.5506 32.4026 25.5875L25.513 33.8864C22.1617 37.9233 16.1724 38.4791 12.1355 35.1278L11.5673 34.6561C7.53038 31.3047 6.97459 25.3154 10.3259 21.2785L9.94121 20.9591L10.3259 21.2785L17.2154 12.9796L16.8307 12.6602L17.2154 12.9796C18.4775 11.4593 20.1126 10.4333 21.877 9.92308C22.1515 10.2329 22.5526 10.4287 23 10.4287ZM22.4477 8.92601L22.372 8.76203L22.1774 8.81069C22.0689 8.71897 22 8.58189 22 8.42871C22 8.15257 22.2239 7.92871 22.5 7.92871C22.7761 7.92871 23 8.15257 23 8.42871C23 8.70485 22.7761 8.92871 22.5 8.92871C22.4824 8.92871 22.4649 8.9278 22.4477 8.92601ZM36.1746 38.4182C32.649 40.5376 28.2986 40.1018 25.2813 37.6462C26.1825 37.0735 27.0107 36.3527 27.7287 35.4878L34.6182 27.1889C36.3665 25.083 37.1524 22.4965 37.0265 19.9634L40.0549 25.0011C42.7582 29.4978 41.3043 35.3345 36.8075 38.0377L36.1746 38.4182ZM18.5 2.92871C18.5 3.20485 18.2761 3.42871 18 3.42871C17.7239 3.42871 17.5 3.20485 17.5 2.92871C17.5 2.65257 17.7239 2.42871 18 2.42871C18.2761 2.42871 18.5 2.65257 18.5 2.92871ZM20.5 5.92871C20.5 6.20485 20.2761 6.42871 20 6.42871C19.7239 6.42871 19.5 6.20485 19.5 5.92871C19.5 5.65257 19.7239 5.42871 20 5.42871C20.2761 5.42871 20.5 5.65257 20.5 5.92871ZM28 17.9287C29.6569 17.9287 31 16.5856 31 14.9287C31 13.2719 29.6569 11.9287 28 11.9287C27.4262 11.9287 26.8901 12.0898 26.4343 12.3692C26.477 12.2299 26.5 12.082 26.5 11.9287C26.5 11.1003 25.8284 10.4287 25 10.4287C24.1716 10.4287 23.5 11.1003 23.5 11.9287C23.5 12.7571 24.1716 13.4287 25 13.4287C25.1533 13.4287 25.3012 13.4057 25.4405 13.363C25.1611 13.8188 25 14.3549 25 14.9287C25 16.5856 26.3432 17.9287 28 17.9287ZM27.5 13.9287C27.5 14.2049 27.2761 14.4287 27 14.4287C26.7239 14.4287 26.5 14.2049 26.5 13.9287C26.5 13.6526 26.7239 13.4287 27 13.4287C27.2761 13.4287 27.5 13.6526 27.5 13.9287ZM31.5 9.92871C31.5 10.2049 31.2761 10.4287 31 10.4287C30.7239 10.4287 30.5 10.2049 30.5 9.92871C30.5 9.65257 30.7239 9.42871 31 9.42871C31.2761 9.42871 31.5 9.65257 31.5 9.92871ZM33.5 6.92871C33.5 7.20485 33.2761 7.42871 33 7.42871C32.7239 7.42871 32.5 7.20485 32.5 6.92871C32.5 6.65257 32.7239 6.42871 33 6.42871C33.2761 6.42871 33.5 6.65257 33.5 6.92871ZM35.5 3.92871C35.5 4.20485 35.2761 4.42871 35 4.42871C34.7239 4.42871 34.5 4.20485 34.5 3.92871C34.5 3.65257 34.7239 3.42871 35 3.42871C35.2761 3.42871 35.5 3.65257 35.5 3.92871Z" fill="#fff" stroke="#fff"/>
</svg>
