<svg width="512" height="512" viewBox="0 0 48 48" fill="none" xmlns="http://www.w3.org/2000/svg">
<path d="M36.4836 2L45.8883 11.4286L32.5 24.447L41.8883 34C43.0687 35.1145 43.5809 36.246 43.5809 38C43.5809 41.3752 40.8517 44.1114 37.485 44.1114C35.8347 44.1114 34.9858 43.8631 33.8883 42.7952L24.2448 33.1272L11.4046 46L2 36.5714L14.8401 23.6986L4.38825 13.2201C4.25347 13.0931 4.12993 12.9695 4.01682 12.8477C3.13705 11.9001 2.88825 11.0561 2.88825 9.5C2.88825 6.12475 5.61748 3.38858 8.98415 3.38858C10.7359 3.38858 12.2763 3.81388 13.3883 5L23.3651 15.1519L36.4836 2Z" fill="#fff"/>
</svg>
