<svg width="512" height="512" viewBox="0 0 48 48" fill="none" xmlns="http://www.w3.org/2000/svg">
<path d="M9 24C9 22.8954 9.89543 22 11 22H31C32.1046 22 33 22.8954 33 24V43C33 44.1046 32.1046 45 31 45H11C9.89543 45 9 44.1046 9 43V24Z" fill="#fff"/>
<path d="M31 3H36C37.6569 3 39 4.34315 39 6V19C39 20.6569 37.6569 22 36 22H31V3Z" fill="#fff"/>
<path d="M22.5 14.5C22.5 17.5376 21.1046 20 20 20C18.8954 20 17.5 17.5376 17.5 14.5C17.5 11.4624 18.8954 9 20 9C21.1046 9 22.5 11.4624 22.5 14.5Z" fill="#fff"/>
</svg>
